<?xml version="1.0" encoding="iso-8859-1"?>
<!-- Generator: Adobe Illustrator 19.0.0, SVG Export Plug-In . SVG Version: 6.00 Build 0)  -->
<svg version="1.1" id="Capa_1" xmlns="http://www.w3.org/2000/svg" xmlns:xlink="http://www.w3.org/1999/xlink" x="0px" y="0px"
	 viewBox="0 0 512 512" style="enable-background:new 0 0 512 512;" xml:space="preserve">
<g>
	<g>
		<g>
			<path d="M469.333,42.667H42.667C19.114,42.694,0.028,61.781,0,85.333v341.333c0.028,23.553,19.114,42.639,42.667,42.667h426.667
				c23.553-0.028,42.639-19.114,42.667-42.667V85.333C511.972,61.781,492.886,42.694,469.333,42.667z M494.933,426.667
				c-0.015,14.132-11.468,25.585-25.6,25.6H42.667c-14.132-0.015-25.585-11.468-25.6-25.6V85.333
				c0.015-14.132,11.468-25.585,25.6-25.6h426.667c14.132,0.015,25.585,11.468,25.6,25.6V426.667z"/>
			<path d="M463.038,85.564c-2.965-0.785-6.122,0.082-8.271,2.27l-34.133,34.133c-2.188,2.149-3.055,5.307-2.27,8.271
				c0.785,2.965,3.1,5.28,6.065,6.065c2.965,0.785,6.122-0.082,8.271-2.27L466.833,99.9c2.188-2.149,3.055-5.307,2.27-8.271
				C468.318,88.664,466.003,86.349,463.038,85.564z"/>
			<path d="M310.735,256.002l87.831-87.835c2.188-2.149,3.055-5.307,2.27-8.271c-0.785-2.965-3.1-5.28-6.065-6.065
				c-2.965-0.785-6.122,0.082-8.271,2.27l-93.857,93.86l-0.01,0.007l-0.007,0.01L274.104,268.5c-10.012,9.967-26.196,9.967-36.208,0
				l-18.522-18.522l-0.008-0.011l-0.011-0.007L57.233,87.834c-3.341-3.281-8.701-3.256-12.012,0.054s-3.335,8.671-0.054,12.012
				l156.098,156.102L45.167,412.1c-2.188,2.149-3.055,5.307-2.27,8.271c0.785,2.965,3.1,5.28,6.065,6.065
				c2.965,0.785,6.122-0.082,8.271-2.27l156.098-156.098l12.498,12.498c16.675,16.633,43.667,16.633,60.342,0l12.498-12.498
				l156.098,156.098c3.341,3.281,8.701,3.256,12.012-0.054s3.335-8.671,0.054-12.012L310.735,256.002z"/>
		</g>
	</g>
</g>
<g>
</g>
<g>
</g>
<g>
</g>
<g>
</g>
<g>
</g>
<g>
</g>
<g>
</g>
<g>
</g>
<g>
</g>
<g>
</g>
<g>
</g>
<g>
</g>
<g>
</g>
<g>
</g>
<g>
</g>
</svg>
